<svg width="84" height="84" viewBox="0 0 84 84" fill="none" xmlns="http://www.w3.org/2000/svg">
<path d="M27 25.2464V10C27 8.89543 27.8954 8 29 8H69C70.1046 8 71 8.89543 71 10V74C71 75.1046 70.1046 76 69 76H29C27.8954 76 27 75.1046 27 74V59.2464" stroke="#E0E0E0" stroke-width="3"/>
<path d="M37.0607 43.0607C37.6464 42.4749 37.6464 41.5251 37.0607 40.9393L27.5147 31.3934C26.9289 30.8076 25.9792 30.8076 25.3934 31.3934C24.8076 31.9792 24.8076 32.9289 25.3934 33.5147L33.8787 42L25.3934 50.4853C24.8076 51.0711 24.8076 52.0208 25.3934 52.6066C25.9792 53.1924 26.9289 53.1924 27.5147 52.6066L37.0607 43.0607ZM6 43.5H36V40.5H6V43.5Z" fill="#E0E0E0"/>
</svg>
