<svg width="48" height="48" viewBox="0 0 48 48" fill="none" xmlns="http://www.w3.org/2000/svg">
<g opacity="0.5">
<path d="M42.7374 45.2407C42.5099 45.2412 42.2845 45.1967 42.0742 45.1098C41.864 45.0228 41.673 44.895 41.5124 44.7339L31.6415 34.8621C31.3678 34.589 31.1935 34.2318 31.1467 33.8479C31.0999 33.4641 31.1831 33.0755 31.3831 32.7445L31.4022 32.7131L21.2031 22.5141L17.6192 26.0979L17.9309 26.4085C18.2649 26.7434 18.4524 27.1971 18.4524 27.67C18.4524 28.1429 18.2649 28.5966 17.9309 28.9315L16.6343 30.2281C16.2997 30.5627 15.8459 30.7506 15.3727 30.7506C14.8996 30.7506 14.4458 30.5627 14.1112 30.2281L4.16336 20.2794C3.99771 20.1138 3.86631 19.9172 3.77666 19.7008C3.68701 19.4844 3.64087 19.2525 3.64087 19.0183C3.64087 18.784 3.68701 18.5521 3.77666 18.3357C3.86631 18.1194 3.99771 17.9228 4.16336 17.7572L5.45993 16.4607C5.79469 16.1268 6.2482 15.9393 6.721 15.9393C7.19381 15.9393 7.64731 16.1268 7.98207 16.4607L8.29367 16.7722L19.4825 5.58249L19.1709 5.27093C19.0052 5.10535 18.8738 4.90875 18.7842 4.69236C18.6945 4.47598 18.6484 4.24405 18.6484 4.00983C18.6484 3.77561 18.6945 3.54369 18.7842 3.32731C18.8738 3.11093 19.0053 2.91433 19.1709 2.74875L20.4684 1.45218C20.634 1.28653 20.8306 1.15513 21.047 1.06548C21.2633 0.975831 21.4953 0.929687 21.7295 0.929688C21.9637 0.929687 22.1956 0.975831 22.412 1.06548C22.6284 1.15513 22.825 1.28653 22.9905 1.45218L32.9393 11.4009C33.2733 11.7356 33.4609 12.1892 33.4609 12.662C33.4609 13.1349 33.2733 13.5884 32.9392 13.9231L31.6427 15.2197C31.3081 15.5542 30.8543 15.7422 30.3812 15.7422C29.908 15.7422 29.4542 15.5542 29.1196 15.2197L28.808 14.9081L25.2243 18.4928L35.4211 28.7084L35.4596 28.6701C35.7903 28.471 36.1782 28.3886 36.5614 28.4357C36.9445 28.4829 37.3008 28.6571 37.5734 28.9304L47.4443 38.8022C47.6052 38.9631 47.7328 39.154 47.8199 39.3642C47.907 39.5744 47.9518 39.7997 47.9518 40.0272C47.9518 40.2547 47.907 40.48 47.8199 40.6902C47.7328 40.9003 47.6052 41.0913 47.4443 41.2522L43.9624 44.734C43.8018 44.8953 43.6109 45.0231 43.4007 45.11C43.1904 45.197 42.965 45.2414 42.7374 45.2407ZM36.3484 29.785C36.2997 29.7848 36.2514 29.7943 36.2064 29.8129C36.1614 29.8316 36.1206 29.859 36.0863 29.8936L32.6046 33.3753C32.5352 33.4448 32.4962 33.539 32.4962 33.6372C32.4962 33.7354 32.5352 33.8296 32.6046 33.8991L42.4755 43.771C42.545 43.8404 42.6393 43.8794 42.7375 43.8794C42.8358 43.8793 42.93 43.8403 42.9995 43.7708L46.4812 40.2891C46.5506 40.2194 46.5896 40.1251 46.5896 40.0267C46.5896 39.9284 46.5506 39.834 46.4812 39.7643L36.6102 29.8934C36.5759 29.859 36.5351 29.8316 36.4901 29.813C36.4452 29.7944 36.397 29.7849 36.3484 29.785ZM22.1662 21.5509L32.334 31.7188L34.4206 29.6331L24.2612 19.4549L22.1662 21.5509ZM6.72057 17.3003C6.66524 17.3003 6.61046 17.3112 6.55937 17.3325C6.50827 17.3537 6.46186 17.3847 6.42279 17.4239L5.12645 18.7203C5.08713 18.7593 5.05591 18.8057 5.03457 18.8568C5.01323 18.9079 5.00221 18.9627 5.00212 19.0181C5.00204 19.0735 5.01289 19.1284 5.03407 19.1795C5.05525 19.2307 5.08633 19.2772 5.12553 19.3163L15.0743 29.265C15.1546 29.3419 15.2615 29.3849 15.3727 29.3849C15.484 29.3849 15.5909 29.3419 15.6712 29.265L16.9677 27.9685C17.0468 27.8893 17.0912 27.7819 17.0912 27.67C17.0912 27.5581 17.0468 27.4508 16.9677 27.3716L7.01903 17.4237C6.97991 17.3845 6.93339 17.3533 6.88216 17.3321C6.83093 17.311 6.776 17.3001 6.72057 17.3003ZM9.25676 17.7344L16.6562 25.1348L20.7215 21.0694L23.766 18.024L23.7805 18.0103L27.8449 13.9459L20.4456 6.54562L9.25676 17.7344ZM21.729 2.2919C21.6735 2.29172 21.6186 2.30254 21.5674 2.32372C21.5162 2.34491 21.4696 2.37604 21.4305 2.41531L20.134 3.71188C20.055 3.79106 20.0106 3.89832 20.0105 4.01016C20.0105 4.122 20.0548 4.2293 20.1337 4.30853L30.0827 14.2566C30.163 14.3335 30.2699 14.3765 30.3811 14.3765C30.4923 14.3765 30.5992 14.3336 30.6796 14.2567L31.9753 12.96C32.0146 12.921 32.0458 12.8746 32.0672 12.8235C32.0885 12.7724 32.0995 12.7176 32.0996 12.6622C32.0997 12.6069 32.0889 12.552 32.0677 12.5008C32.0465 12.4497 32.0154 12.4032 31.9762 12.3641L22.0275 2.41531C21.9883 2.37604 21.9418 2.34492 21.8906 2.32373C21.8393 2.30255 21.7844 2.29173 21.729 2.2919Z" fill="white"/>
<path d="M1.21783 47.0703C0.907386 47.0699 0.609755 46.9464 0.390235 46.7269C0.170715 46.5074 0.0472316 46.2098 0.046875 45.8993V43.8275C0.0477908 43.0018 0.3762 42.2102 0.960053 41.6263C1.54391 41.0424 2.33552 40.714 3.16122 40.713H4.32376V36.8309C4.32407 36.4321 4.48257 36.0497 4.76448 35.7676C5.04639 35.4855 5.42869 35.3268 5.82751 35.3262H24.9741C25.373 35.3266 25.7555 35.4853 26.0376 35.7674C26.3196 36.0495 26.4783 36.432 26.4787 36.8309V40.713H27.6403C28.466 40.714 29.2576 41.0424 29.8415 41.6263C30.4253 42.2102 30.7537 43.0018 30.7547 43.8275V45.8993C30.7543 46.2098 30.6308 46.5074 30.4113 46.7269C30.1918 46.9464 29.8942 47.0699 29.5838 47.0703H1.21783ZM3.16122 42.0743C2.69656 42.075 2.25112 42.26 1.92265 42.5886C1.59417 42.9173 1.40948 43.3628 1.40909 43.8275V45.7081H29.3935V43.8275C29.3929 43.3627 29.2081 42.9171 28.8794 42.5884C28.5507 42.2597 28.1051 42.0749 27.6403 42.0743L3.16122 42.0743ZM5.82752 36.6884C5.78973 36.6884 5.7535 36.7035 5.72679 36.7302C5.70007 36.7569 5.68505 36.7931 5.68501 36.8309V40.713H25.1166V36.8309C25.1166 36.7931 25.1015 36.7569 25.0748 36.7302C25.0481 36.7035 25.0119 36.6884 24.9741 36.6884L5.82752 36.6884Z" fill="white"/>
</g>
</svg>
