<svg width="48" height="48" viewBox="0 0 48 48" fill="none" xmlns="http://www.w3.org/2000/svg">
<g opacity="0.5">
<path d="M44.2671 37.7744C43.1735 37.042 41.8873 36.6505 40.5712 36.6495C40.1258 36.6497 39.6816 36.6938 39.2449 36.7813L30.5287 38.6115L30.7502 37.5348C30.9421 36.6452 30.8125 35.7163 30.3845 34.9131C29.9565 34.1099 29.2578 33.4843 28.4124 33.1473L20.2362 29.9111C17.1365 28.6855 13.7002 28.6112 10.5505 29.7017L0.530762 33.2131V45.738L11.8462 41.9415L26.513 47.456L26.5225 47.4596L47.3148 43.1728L47.3491 43.1658L47.1215 42.0314C46.9508 41.1684 46.6106 40.3477 46.1207 39.617C45.6307 38.8863 45.0007 38.26 44.2671 37.7744ZM29.2849 37.5997C29.1759 37.9205 29.0027 38.2158 28.7759 38.4675C28.5492 38.7193 28.2735 38.9223 27.9658 39.0641C27.6555 39.2079 27.3176 39.2825 26.9756 39.2828C26.6844 39.2828 26.3958 39.2281 26.1248 39.1215L16.8939 35.5043L16.3838 36.8059L25.6147 40.4233C26.2631 40.679 26.9704 40.7471 27.6557 40.6199L28.3516 40.4901L28.3531 40.4971L39.5209 38.1522C39.8647 38.0837 40.2144 38.049 40.565 38.0488C41.5989 38.0514 42.6095 38.356 43.4726 38.925C44.3357 39.4941 45.0139 40.3029 45.4236 41.2521L45.7715 42.0638L26.6361 46.0087L11.8845 40.4623L11.8728 40.4578L1.92877 43.7943V34.2047L11.0105 31.022C13.8434 30.0412 16.934 30.1084 19.7217 31.2112L27.9002 34.4482C29.1056 34.9206 29.7267 36.3342 29.2849 37.5997Z" fill="white"/>
<path d="M25.3529 25.8705H25.3538C25.9248 25.872 26.4904 25.7602 27.0178 25.5417C27.5453 25.3232 28.0242 25.0022 28.4269 24.5974L36.206 16.8181L38.6831 19.295L38.708 19.3199L45.6731 12.3548C46.8267 11.2011 47.4748 9.6365 47.4748 8.00504C47.4748 6.37357 46.8267 4.80892 45.6731 3.65527L44.3604 2.3425C43.2067 1.18902 41.6421 0.541016 40.0107 0.541016C38.3792 0.541016 36.8146 1.18902 35.6609 2.3425L28.7207 9.28293L28.6959 9.30783L31.1976 11.8096L18.8935 24.1137L18.8516 24.1558L24.1378 25.6967C24.5326 25.8118 24.9417 25.8703 25.3529 25.8705ZM35.2208 15.8328L27.4415 23.612C27.0674 23.9864 26.5995 24.2532 26.0868 24.3846C25.5742 24.5159 25.0356 24.507 24.5276 24.3587L21.5013 23.4766L32.183 12.795L35.2208 15.8328ZM30.6664 9.30783L36.6463 3.32788C37.5386 2.4356 38.7488 1.93434 40.0107 1.93436C41.2726 1.93437 42.4828 2.43567 43.3751 3.32797L44.6879 4.64075C45.5802 5.53306 46.0814 6.74326 46.0814 8.00512C46.0813 9.26699 45.58 10.4772 44.6877 11.3694L38.7079 17.3493L30.6664 9.30783Z" fill="white"/>
</g>
</svg>
